<svg xmlns="http://www.w3.org/2000/svg" width="980" height="225" viewBox="0 0 980 225" role="img" aria-labelledby="title desc">
  <title id="title">GitHub activity breakdown for notatestuser</title>
  <desc id="desc">Two pie charts showing public versus private contributions and changed-file language breakdown.</desc>
  <defs>
    <style>
      text { font-family: -apple-system, BlinkMacSystemFont, &quot;Segoe UI&quot;, sans-serif; }
      .section { font-size: 16px; font-weight: 700; letter-spacing: 0; }
      .body { font-size: 13px; font-weight: 650; letter-spacing: 0; }
      .muted { font-size: 12px; font-weight: 500; letter-spacing: 0; }
      .centerBig { font-size: 22px; font-weight: 780; letter-spacing: 0; }
      .centerSmall { font-size: 11px; font-weight: 650; letter-spacing: .04em; text-transform: uppercase; }
    </style>
  </defs>

  <rect x="38" y="12.5" width="430" height="212" rx="12" fill="#ffffff" stroke="#d0d7de"/>
  <rect x="512" y="12.5" width="430" height="212" rx="12" fill="#ffffff" stroke="#d0d7de"/>

  <g transform="translate(0 -76)">
  <text x="62" y="119" class="section" fill="#24292f">Public / private</text>
  <g>
    <path d="M 162 211 L 162.000 139.000 A 72 72 0 0 1 229.485 236.095 Z" fill="#2fb8a6"/>
    <path d="M 162 211 L 229.485 236.095 A 72 72 0 1 1 162.000 139.000 Z" fill="#7c3aed"/>
    <circle cx="162" cy="211" r="42" fill="#ffffff" stroke="#d0d7de"/>
    <text x="162" y="207" text-anchor="middle" class="centerBig" fill="#24292f">13.7k</text>
    <text x="162" y="226" text-anchor="middle" class="centerSmall" fill="#57606a">contribs</text>
  </g>
  
    <g transform="translate(276 170)">
      <rect x="0" y="-10" width="10" height="10" rx="2" fill="#7c3aed"/>
      <text x="18" y="-8" class="body" fill="#24292f">Private</text>
      <text x="18" y="10" class="muted" fill="#57606a">9,523 / 69.3%</text>
    </g>
  
    <g transform="translate(276 222)">
      <rect x="0" y="-10" width="10" height="10" rx="2" fill="#2fb8a6"/>
      <text x="18" y="-8" class="body" fill="#24292f">Public</text>
      <text x="18" y="10" class="muted" fill="#57606a">4,212 / 30.7%</text>
    </g>
  <text x="536" y="119" class="section" fill="#24292f">Language mix</text>
  <g>
    <path d="M 632 211 L 632.000 139.000 A 72 72 0 0 1 702.407 226.061 Z" fill="#636c76"/>
    <path d="M 632 211 L 702.407 226.061 A 72 72 0 0 1 614.203 280.766 Z" fill="#f1e05a"/>
    <path d="M 632 211 L 614.203 280.766 A 72 72 0 0 1 560.749 200.640 Z" fill="#00add8"/>
    <path d="M 632 211 L 560.749 200.640 A 72 72 0 0 1 570.128 174.178 Z" fill="#f05138"/>
    <path d="M 632 211 L 570.128 174.178 A 72 72 0 0 1 587.832 154.139 Z" fill="#563d7c"/>
    <path d="M 632 211 L 587.832 154.139 A 72 72 0 0 1 599.895 146.554 Z" fill="#e34c26"/>
    <path d="M 632 211 L 599.895 146.554 A 72 72 0 0 1 610.212 142.376 Z" fill="#b07219"/>
    <path d="M 632 211 L 610.212 142.376 A 72 72 0 0 1 632.000 139.000 Z" fill="#8b5cf6"/>
    <circle cx="632" cy="211" r="42" fill="#ffffff" stroke="#d0d7de"/>
    <text x="632" y="207" text-anchor="middle" class="centerBig" fill="#24292f">18</text>
    <text x="632" y="226" text-anchor="middle" class="centerSmall" fill="#57606a">languages</text>
  </g>
  
    <g transform="translate(780 140)">
      <rect x="0" y="-8" width="9" height="9" rx="2" fill="#636c76"/>
      <text x="17" y="0" class="body" fill="#24292f">C</text>
      <text x="132" y="0" text-anchor="end" class="muted" fill="#57606a">28.4%</text>
    </g>
    <g transform="translate(780 160)">
      <rect x="0" y="-8" width="9" height="9" rx="2" fill="#f1e05a"/>
      <text x="17" y="0" class="body" fill="#24292f">JavaScript</text>
      <text x="132" y="0" text-anchor="end" class="muted" fill="#57606a">25.6%</text>
    </g>
    <g transform="translate(780 180)">
      <rect x="0" y="-8" width="9" height="9" rx="2" fill="#00add8"/>
      <text x="17" y="0" class="body" fill="#24292f">Go</text>
      <text x="132" y="0" text-anchor="end" class="muted" fill="#57606a">23.3%</text>
    </g>
    <g transform="translate(780 200)">
      <rect x="0" y="-8" width="9" height="9" rx="2" fill="#f05138"/>
      <text x="17" y="0" class="body" fill="#24292f">Swift</text>
      <text x="132" y="0" text-anchor="end" class="muted" fill="#57606a">6.2%</text>
    </g>
    <g transform="translate(780 220)">
      <rect x="0" y="-8" width="9" height="9" rx="2" fill="#563d7c"/>
      <text x="17" y="0" class="body" fill="#24292f">CSS</text>
      <text x="132" y="0" text-anchor="end" class="muted" fill="#57606a">5.9%</text>
    </g>
    <g transform="translate(780 240)">
      <rect x="0" y="-8" width="9" height="9" rx="2" fill="#e34c26"/>
      <text x="17" y="0" class="body" fill="#24292f">HTML</text>
      <text x="132" y="0" text-anchor="end" class="muted" fill="#57606a">3.2%</text>
    </g>
    <g transform="translate(780 260)">
      <rect x="0" y="-8" width="9" height="9" rx="2" fill="#b07219"/>
      <text x="17" y="0" class="body" fill="#24292f">Java</text>
      <text x="132" y="0" text-anchor="end" class="muted" fill="#57606a">2.5%</text>
    </g>
    <g transform="translate(780 280)">
      <rect x="0" y="-8" width="9" height="9" rx="2" fill="#8b5cf6"/>
      <text x="17" y="0" class="body" fill="#24292f">Other</text>
      <text x="132" y="0" text-anchor="end" class="muted" fill="#57606a">4.9%</text>
    </g>
  </g>
</svg>
